<?xml version="1.0" encoding="utf-8"?>
<!-- Generator: Adobe Illustrator 16.0.4, SVG Export Plug-In . SVG Version: 6.00 Build 0)  -->
<!DOCTYPE svg PUBLIC "-//W3C//DTD SVG 1.1//EN" "http://www.w3.org/Graphics/SVG/1.1/DTD/svg11.dtd">
<svg version="1.1" id="Layer_1" xmlns="http://www.w3.org/2000/svg" xmlns:xlink="http://www.w3.org/1999/xlink" x="0px" y="0px"
	 width="186.58px" height="31.91px" viewBox="0 0 186.58 31.91" style="enable-background:new 0 0 186.58 31.91;"
	 xml:space="preserve">
<g>
	<g>
		<path style="fill:#1F8CEC;" d="M122.93,0.49l-17.75,30.8h35.5L122.93,0.49z M122.93,15.81l4.98,8.88h-9.96L122.93,15.81z"/>
	</g>
	<g>
		<path style="fill:#1F8CEC;" d="M14.46,23.93c3.38,0,4.6-2.32,4.78-4.56h9.07c-0.22,6.92-5.04,12.53-13.67,12.53
			C4.73,31.91,0,26.3,0,17.97v-4.03C0,5.61,4.73,0,14.64,0c8.63,0,13.46,5.61,13.67,12.54h-9.07c-0.17-2.24-1.4-4.56-4.78-4.56
			c-3.29,0-4.86,2.15-4.86,5.52v4.91C9.6,21.78,11.18,23.93,14.46,23.93z"/>
		<path style="fill:#1F8CEC;" d="M31.93,0.61h9.6v22.7h12.45v7.98H31.93V0.61z"/>
		<path style="fill:#1F8CEC;" d="M57.04,0.61h9.6v30.68h-9.6V0.61z"/>
		<path style="fill:#1F8CEC;" d="M103.11,31.29h-9.12V18.67l-3.16,6.13h-7.19l-3.16-6.13v12.62h-9.12V0.61h8.76l7.1,14.99l7.1-14.99
			h8.77V31.29z"/>
		<path style="fill:#1F8CEC;" d="M143.06,8.72h-7.71V0.61h25.07v8.11h-7.76v22.57h-9.6V8.72z"/>
		<path style="fill:#1F8CEC;" d="M163.35,0.61h23.18V8.5h-13.58v3.33h12.27v7.89h-12.27v3.68h13.63v7.89h-23.23V0.61z"/>
	</g>
</g>
</svg>
