<?xml version="1.0" encoding="utf-8"?>
<!-- Generator: Adobe Illustrator 16.0.4, SVG Export Plug-In . SVG Version: 6.00 Build 0)  -->
<!DOCTYPE svg PUBLIC "-//W3C//DTD SVG 1.1//EN" "http://www.w3.org/Graphics/SVG/1.1/DTD/svg11.dtd">
<svg version="1.1" xmlns="http://www.w3.org/2000/svg" xmlns:xlink="http://www.w3.org/1999/xlink" x="0px" y="0px"
	 width="133.828px" height="18.327px" viewBox="0 0 133.828 18.327" enable-background="new 0 0 133.828 18.327"
	 xml:space="preserve">
<g id="Layer_2" display="none">
	<rect x="8.101" y="-10.569" display="inline" fill="#EC008C" width="117.625" height="33"/>
</g>
<g id="Layer_1">
	<g>
		<g>
			<path fill="#FFFFFF" d="M32.392,3.122c-1.659,0-2.936,0.616-3.831,1.847c-0.895,1.23-1.344,2.847-1.344,4.846
				c0,2.054,0.455,3.679,1.363,4.869c0.909,1.19,2.199,1.786,3.871,1.786c1.316,0,2.323-0.34,3.021-1.024
				c0.697-0.685,1.105-1.521,1.224-2.509h1.402c-0.119,1.383-0.695,2.511-1.728,3.387c-1.034,0.874-2.379,1.312-4.038,1.312
				c-1.988,0-3.588-0.657-4.798-1.973c-1.211-1.316-1.817-3.268-1.817-5.849c0-2.421,0.625-4.332,1.875-5.733
				c1.25-1.404,2.851-2.104,4.799-2.104c0.921,0,1.774,0.141,2.557,0.424c0.783,0.283,1.478,0.783,2.083,1.501
				c0.606,0.719,0.96,1.603,1.066,2.655h-1.442c-0.118-0.947-0.529-1.756-1.234-2.429C34.718,3.458,33.708,3.122,32.392,3.122z"/>
			<path fill="#FFFFFF" d="M40.953,17.32V1.759h1.382V17.32H40.953z"/>
			<path fill="#FFFFFF" d="M45.668,4.405V2.847h1.481v1.559H45.668z M45.708,17.32V6.974h1.382V17.32H45.708z"/>
			<path fill="#FFFFFF" d="M50.483,17.32V6.974h1.283V8.81h0.04c0.277-0.619,0.71-1.123,1.303-1.512
				c0.592-0.387,1.296-0.582,2.113-0.582c1.711,0,2.737,0.744,3.081,2.23h0.039c0.277-0.645,0.72-1.177,1.333-1.599
				c0.612-0.421,1.333-0.632,2.162-0.632c2.16,0,3.239,1.191,3.239,3.574v7.03h-1.363v-6.536c0-1.027-0.151-1.758-0.454-2.191
				c-0.343-0.475-0.921-0.713-1.738-0.713c-1.014,0-1.777,0.317-2.291,0.949c-0.513,0.631-0.77,1.428-0.77,2.389v6.103h-1.363
				v-6.557c0-1.025-0.152-1.743-0.454-2.151c-0.356-0.486-0.928-0.732-1.719-0.732c-1.014,0-1.777,0.317-2.29,0.949
				c-0.514,0.631-0.771,1.422-0.771,2.369v6.122H50.483z"/>
			<path fill="#FFFFFF" d="M69.502,9.718h-1.303c0.013-0.843,0.358-1.555,1.038-2.133c0.678-0.579,1.582-0.869,2.714-0.869
				c1.343,0,2.291,0.334,2.846,0.998c0.551,0.664,0.828,1.602,0.828,2.811v4.504c0,0.475,0.074,0.808,0.227,0.998
				s0.411,0.294,0.779,0.306v1.087h-0.176c-0.725,0-1.245-0.161-1.561-0.484c-0.316-0.322-0.494-0.838-0.533-1.55H74.32
				c-0.315,0.67-0.775,1.188-1.381,1.55c-0.607,0.361-1.304,0.543-2.094,0.543c-0.974,0-1.748-0.256-2.318-0.77
				c-0.574-0.513-0.861-1.225-0.861-2.133c0-1.172,0.475-2.016,1.422-2.529c0.791-0.447,2.535-0.742,5.232-0.889v-0.651
				c0-1.829-0.802-2.743-2.407-2.743c-0.752,0-1.331,0.184-1.738,0.553C69.766,8.685,69.542,9.151,69.502,9.718z M71.122,16.373
				c0.829,0,1.566-0.323,2.212-0.97c0.644-0.643,0.967-1.559,0.967-2.744v-0.435c-1.369,0.08-2.386,0.177-3.051,0.288
				c-0.664,0.109-1.155,0.279-1.471,0.502c-0.475,0.344-0.711,0.842-0.711,1.5c0,0.607,0.184,1.068,0.553,1.384
				C69.989,16.214,70.491,16.373,71.122,16.373z"/>
			<path fill="#FFFFFF" d="M79.668,3.872h1.283v3.102h2.646V8.04h-2.646v6.693c0,0.553,0.128,0.955,0.384,1.203
				c0.258,0.251,0.682,0.377,1.274,0.377l1.185-0.118v1.144c-0.394,0.106-0.902,0.158-1.52,0.158c-1.791,0-2.686-0.868-2.686-2.605
				V8.04h-1.975V7.013h0.453c0.672,0,1.105-0.133,1.304-0.396s0.297-0.861,0.297-1.797V3.872z"/>
			<path fill="#FFFFFF" d="M93.644,14.733c-0.197,0.815-0.654,1.494-1.371,2.033c-0.719,0.539-1.57,0.809-2.559,0.809
				c-1.539,0-2.691-0.472-3.455-1.422c-0.764-0.946-1.145-2.256-1.145-3.929c0-1.62,0.397-2.94,1.193-3.968
				c0.798-1.027,1.912-1.541,3.348-1.541c0.974,0,1.783,0.248,2.429,0.74c0.645,0.494,1.093,1.09,1.343,1.787
				s0.376,1.486,0.376,2.369v0.852h-7.308c0.079,2.686,1.16,4.027,3.238,4.027c0.554,0,1.031-0.115,1.433-0.348
				c0.401-0.229,0.679-0.459,0.829-0.688c0.151-0.231,0.268-0.473,0.346-0.722H93.644z M92.421,11.415v-0.099
				c-0.014-0.988-0.232-1.821-0.652-2.507c-0.422-0.684-1.126-1.027-2.113-1.027c-0.936,0-1.67,0.33-2.202,0.988
				s-0.846,1.539-0.938,2.645H92.421z"/>
			<path fill="#FFFFFF" d="M102.294,17.32V2.214h1.4v13.862h7.801v1.244H102.294z"/>
			<path fill="#FFFFFF" d="M115.32,9.718h-1.303c0.014-0.843,0.357-1.555,1.036-2.133c0.678-0.579,1.583-0.869,2.716-0.869
				c1.342,0,2.289,0.334,2.844,0.998c0.553,0.664,0.828,1.602,0.828,2.811v4.504c0,0.475,0.076,0.808,0.229,0.998
				c0.149,0.19,0.41,0.294,0.779,0.306v1.087h-0.179c-0.723,0-1.244-0.161-1.56-0.484c-0.314-0.322-0.494-0.838-0.532-1.55h-0.04
				c-0.315,0.67-0.777,1.188-1.383,1.55s-1.303,0.543-2.093,0.543c-0.974,0-1.748-0.256-2.319-0.77
				c-0.573-0.513-0.86-1.225-0.86-2.133c0-1.172,0.475-2.016,1.422-2.529c0.79-0.447,2.535-0.742,5.233-0.889v-0.651
				c0-1.829-0.803-2.743-2.409-2.743c-0.751,0-1.329,0.184-1.737,0.553S115.359,9.151,115.32,9.718z M116.939,16.373
				c0.83,0,1.566-0.323,2.212-0.97c0.646-0.643,0.968-1.559,0.968-2.744v-0.435c-1.37,0.08-2.387,0.177-3.052,0.288
				c-0.663,0.109-1.153,0.279-1.47,0.502c-0.476,0.344-0.711,0.842-0.711,1.5c0,0.607,0.185,1.068,0.553,1.384
				C115.806,16.214,116.307,16.373,116.939,16.373z"/>
			<path fill="#FFFFFF" d="M124.863,17.32V1.759h1.383V8.75h0.019c0.658-1.356,1.792-2.034,3.396-2.034
				c1.198,0,2.192,0.432,2.981,1.294c0.791,0.862,1.186,2.22,1.186,4.075c0,1.793-0.412,3.154-1.235,4.09
				c-0.821,0.934-1.865,1.4-3.13,1.4c-0.789,0-1.464-0.192-2.023-0.58c-0.559-0.388-0.977-0.873-1.253-1.453h-0.04v1.778H124.863z
				 M127.015,15.403c0.54,0.712,1.316,1.066,2.33,1.066s1.78-0.383,2.301-1.154c0.519-0.77,0.779-1.848,0.779-3.23
				c0-2.842-1.014-4.264-3.041-4.264c-1,0-1.779,0.337-2.34,1.008c-0.559,0.672-0.84,1.473-0.84,2.408v1.619
				C126.205,13.845,126.474,14.693,127.015,15.403z"/>
		</g>
		<g>
			<polygon fill="none" points="7.372,6.821 2.75,16.251 11.995,16.251 			"/>
			<path fill="#FFFFFF" d="M8.983,0L0,18.327h17.968L8.983,0z M7.372,6.821l4.624,9.43H2.75L7.372,6.821z"/>
		</g>
	</g>
</g>
</svg>
